<?xml version="1.0" encoding="utf-8"?>
<!-- Generator: Adobe Illustrator 21.0.0, SVG Export Plug-In . SVG Version: 6.00 Build 0)  -->
<!DOCTYPE svg PUBLIC "-//W3C//DTD SVG 1.1//EN" "http://www.w3.org/Graphics/SVG/1.1/DTD/svg11.dtd">
<svg version="1.1" id="Layer_1" xmlns="http://www.w3.org/2000/svg" xmlns:xlink="http://www.w3.org/1999/xlink" x="0px" y="0px"
	 viewBox="0 0 184 36" style="enable-background:new 0 0 184 36;" xml:space="preserve">
<style type="text/css">
	.st0{fill:#FFFFFF;}
</style>
<g>
	<path d="M12.4,23v7.7c0,0,0,0,0,0.1c0,0,0,0,0,0.1c0,0.3,0,0.6,0,1c0,0.4-0.1,0.8-0.1,1.2c-0.2,0.7-0.6,1.4-1.2,2
		C10.4,35.6,9.4,36,7.9,36l-3.4,0c-0.1,0-0.3,0-0.4,0c-0.2,0-0.3,0-0.5,0c-0.9-0.1-1.7-0.4-2.4-1c-0.7-0.6-1.1-2-1.1-4.2V5.2
		C0,5,0,4.8,0,4.6C0,4.4,0,4.2,0,4c0-1,0.3-1.9,0.8-2.7C1.4,0.4,2.6,0,4.5,0h3.4c1.6,0,2.7,0.3,3.3,0.9c0.6,0.6,1,1.3,1.1,2.1
		c0.1,0.3,0.1,0.7,0.1,1c0,0.3,0,0.6,0,0.9c0,0.1,0,0.1,0,0.1c0,0,0,0.1,0,0.1V12h-5V3.9c0-0.3-0.1-0.5-0.3-0.6
		C6.9,3,6.8,2.9,6.6,2.8c-0.1,0-0.1,0-0.2-0.1c-0.1,0-0.2,0-0.2,0C5.9,2.7,5.6,2.8,5.4,3C5.2,3.3,5,3.5,5,3.7c0,0,0,0.1,0,0.1
		c0,0,0,0,0,0.1v27.8c0,0,0,0.1,0,0.1c0,0,0,0.1,0,0.1c0.1,0.2,0.2,0.4,0.4,0.6c0.2,0.2,0.4,0.3,0.8,0.3c0.3,0,0.6-0.1,0.8-0.3
		c0.3-0.2,0.4-0.5,0.4-0.8V23H12.4z"/>
	<path d="M18.8,26.5L14,0h5.7l1.6,15.1L23,0h5.7l-4.8,26.5l0,9.5h-5.1V26.5z"/>
	<path d="M31.7,0h7.5c1.7,0,2.8,0.3,3.5,1c0.7,0.6,1.1,1.4,1.2,2.2c0.1,0.3,0.1,0.7,0.2,1c0,0.4,0,0.7,0,1c0,0,0,0.1,0,0.1v8
		c0,1.3-0.3,2.2-0.9,2.8c-0.6,0.6-1.2,1-2,1.2c-0.3,0.1-0.6,0.1-0.8,0.1c-0.3,0-0.5,0-0.7,0v0.3c0.2,0,0.5,0,0.7,0
		c0.3,0,0.5,0.1,0.8,0.1c0.8,0.2,1.5,0.5,2.1,1c0.6,0.5,0.9,1.3,0.9,2.4V31c0,1.6-0.3,2.8-1,3.5c-0.7,0.7-1.4,1.1-2.2,1.3
		c-0.3,0.1-0.6,0.1-1,0.2c-0.3,0-0.6,0-0.9,0h-7.5V0z M37.3,15.6c0.7,0,1.1-0.1,1.4-0.4c0.3-0.3,0.4-0.7,0.4-1.2V5.1
		c0-0.6-0.2-1-0.5-1.3c-0.4-0.3-0.8-0.5-1.3-0.5h-0.6v12.3H37.3z M37.3,32.7c0.5,0,0.9-0.1,1.2-0.4c0.4-0.3,0.6-0.8,0.6-1.5V21
		c0-0.8-0.2-1.4-0.5-1.7c-0.4-0.3-0.7-0.5-1.2-0.5h-0.6v13.9H37.3z"/>
	<path d="M47.2,0h12v3.3h-6.9v12.3h6.9v3.3h-6.9v13.8h6.9V36h-12V0z"/>
	<path d="M62.6,0h8c1.8,0,2.9,0.4,3.5,1.1c0.6,0.7,0.9,1.6,1,2.4c0,0.2,0,0.5,0,0.7c0,0.2,0,0.5,0,0.7c0,0,0,0.1,0,0.1
		c0,0,0,0.1,0,0.1v11.9c0,0.2,0,0.5,0,0.7c0,0.2,0,0.5,0,0.7c-0.1,0.7-0.2,1.4-0.6,2c-0.3,0.6-0.9,1.1-1.8,1.5l3.4,14h-5.4L68,22.7
		h-0.3V36h-5.1V0z M68.4,19.5c0.5,0,0.9-0.2,1.2-0.6c0.3-0.4,0.4-1,0.4-1.7v-12c0-0.7-0.1-1.2-0.4-1.4c-0.3-0.3-0.6-0.4-0.9-0.4
		c0,0-0.1,0-0.1,0c0,0-0.1,0-0.1,0h-0.8v16.2H68.4z"/>
	<path class="st0" d="M79.2,0h5.1v32.7H90V36H79.2V0z"/>
	<path class="st0" d="M91.8,0h12v3.3h-6.9v12.3h6.9v3.3h-6.9v13.8h6.9V36h-12V0z"/>
	<path class="st0" d="M107.1,0h5.1l3.2,16.5V0h5.1v36h-5.1l-3.2-14.8V36h-5.1V0z"/>
	<path class="st0" d="M124.7,0h5.1v36h-5.1V0z"/>
	<path class="st0" d="M134,0h5.1l3.2,16.5V0h5.1v36h-5.1l-3.2-14.8V36H134V0z"/>
	<path class="st0" d="M151.5,0h5.1v15.5L159.2,0h5.1l-3.2,17l3.7,19h-4.9l-3.2-17.1V36h-5.1V0z"/>
	<path class="st0" d="M171,0h7.7l3.6,36h-5l-0.9-10h-3.5l-0.8,10h-4.9L171,0z M176.1,22.6l-1.3-18.3h-0.3l-1.4,18.3H176.1z"/>
</g>
</svg>
