<?xml version="1.0" encoding="utf-8"?>
<!-- Generator: Adobe Illustrator 21.0.0, SVG Export Plug-In . SVG Version: 6.00 Build 0)  -->
<!DOCTYPE svg PUBLIC "-//W3C//DTD SVG 1.1//EN" "http://www.w3.org/Graphics/SVG/1.1/DTD/svg11.dtd">
<svg version="1.1" id="Layer_1" xmlns="http://www.w3.org/2000/svg" xmlns:xlink="http://www.w3.org/1999/xlink" x="0px" y="0px"
	 viewBox="0 0 100 24" style="enable-background:new 0 0 100 24;" xml:space="preserve">
<style type="text/css">
	.st0{fill:#008BCE;}
	.st1{fill:#42C2F1;}
	.st2{fill:#008BCF;}
	.st3{fill:#3CC5F3;}
	.st4{fill:#41C4F2;}
</style>
<g id="text">
	<g>
		<path class="st0" d="M0,24C0,16,0,8,0,0c8,0,16,0,24,0c0,3.5,0,6.5,0,10c6,0,12,0,18,0c1,0,2,0,3,0c0,4.5,0,9.5,0,14c-1,0-2,0-3,0
			c0-3.5,0-7.5,0-11c-6,0-12,0-18,0c0,3.5,0,7.5,0,11C16,24,8,24,0,24z M21,3C15,3,9,3,3,3c0,6,0,12,0,18c6,0,12,0,18,0
			C21,15,21,9,21,3z"/>
		<path class="st1" d="M42,10c0-3.5,0-6.5,0-10c1,0,2,0,3,0c0,3.5,0,6.5,0,10C44,10,43,10,42,10z"/>
	</g>
</g>
<g id="sign">
	<g>
		<g>
			<path class="st2" d="M54.7,23.8v-5.2h-3.6v5.2h-0.5V12.9h0.5v5.2h3.6v-5.2h0.5v10.9H54.7z"/>
			<path class="st2" d="M55.4,24h-0.9v-5.2h-3.2V24h-0.9V12.8h0.9v5.2h3.2v-5.2h0.9V24z M54.9,23.6H55V13.1h-0.2v5.2h-3.9v-5.2h-0.2
				v10.5h0.2v-5.2h3.9V23.6z"/>
		</g>
		<g>
			<path class="st2" d="M61.6,23.8L61,21.2h-3.4L57,23.8h-0.6l2.6-10.9h0.5l2.6,10.9H61.6z M57.8,20.7h3.1l-1.5-6.5L57.8,20.7z"/>
			<path class="st2" d="M62.4,24h-1l-0.6-2.6h-3.1L57.2,24h-0.9l2.7-11.2h0.8L62.4,24z M61.8,23.6H62l-2.5-10.5h-0.3l-2.5,10.5h0.2
				l0.6-2.6h3.6L61.8,23.6z M61.1,20.9h-3.6l1.8-7.5L61.1,20.9z M58,20.5h2.6L59.3,15L58,20.5z"/>
		</g>
		<g>
			<path class="st2" d="M65.3,22.4L63,12.9h0.6l2.1,8.4l2.5-8.4h0.6l-3,10c-0.1,0.3-0.2,0.5-0.4,0.7c-0.1,0.1-0.4,0.2-0.7,0.2v-0.5
				c0.2,0,0.3,0,0.3-0.1c0.1-0.1,0.1-0.2,0.2-0.3L65.3,22.4z"/>
			<path class="st2" d="M64.7,24h-0.2v-0.9h0.2c0.2,0,0.2,0,0.2,0c0,0,0.1-0.1,0.1-0.2l0.1-0.4l-2.4-9.7h0.9l2,7.9l2.4-7.9h1
				L65.9,23c-0.1,0.3-0.2,0.6-0.4,0.7C65.3,23.9,65.1,24,64.7,24z M64.9,23.4v0.2c0.2,0,0.3-0.1,0.4-0.2c0.1-0.1,0.2-0.3,0.3-0.6
				l2.9-9.8h-0.2L65.6,22l-2.2-8.9h-0.2l2.3,9.3l-0.2,0.5c-0.1,0.2-0.1,0.3-0.2,0.4C65.1,23.4,65,23.4,64.9,23.4z"/>
		</g>
		<g>
			<path class="st2" d="M74.6,23.8l-2.4-5.2h-1.7v5.2H70V12.9h0.6v5.2h1.7l2.4-5.2h0.6l-2.5,5.4l2.5,5.4H74.6z"/>
			<path class="st2" d="M75.5,24h-1l-2.4-5.2h-1.4V24h-0.9V12.8h0.9v5.2h1.4l2.4-5.2h1l-2.6,5.6L75.5,24z M74.8,23.6h0.2l-2.5-5.3
				l2.4-5.3h-0.2l-2.4,5.2h-2v-5.2h-0.2v10.5h0.2v-5.2h2L74.8,23.6z"/>
		</g>
		<g>
			<path class="st2" d="M81,23.8l-0.6-2.6h-3.4l-0.6,2.6h-0.6l2.6-10.9H79l2.6,10.9H81z M77.2,20.7h3.1l-1.5-6.5L77.2,20.7z"/>
			<path class="st2" d="M81.9,24h-1l-0.6-2.6h-3.1L76.6,24h-0.9l2.7-11.2h0.8L81.9,24z M81.2,23.6h0.2l-2.5-10.5h-0.3l-2.5,10.5h0.2
				l0.6-2.6h3.6L81.2,23.6z M80.5,20.9H77l1.8-7.5L80.5,20.9z M77.4,20.5h2.6L78.8,15L77.4,20.5z"/>
		</g>
	</g>
	<g>
		<g>
			<path class="st3" d="M50.6,2.6c0-0.4,0.1-0.8,0.2-1.1c0.1-0.3,0.3-0.5,0.5-0.7c0.2-0.2,0.5-0.3,0.8-0.4c0.3-0.1,0.6-0.1,0.9-0.1
				c0.3,0,0.6,0,0.9,0.1c0.3,0.1,0.5,0.2,0.8,0.4c0.2,0.2,0.4,0.4,0.5,0.7c0.1,0.3,0.2,0.7,0.2,1.1V9c0,0.4-0.1,0.8-0.2,1.1
				c-0.1,0.3-0.3,0.5-0.5,0.7c-0.2,0.2-0.5,0.3-0.8,0.4c-0.3,0.1-0.6,0.1-0.9,0.1c-0.3,0-0.6,0-0.9-0.1c-0.3-0.1-0.5-0.2-0.8-0.4
				c-0.2-0.2-0.4-0.4-0.5-0.7c-0.1-0.3-0.2-0.7-0.2-1.1V2.6z M54.8,2.6c0-0.3,0-0.6-0.1-0.8c-0.1-0.2-0.2-0.4-0.4-0.6
				c-0.2-0.2-0.4-0.3-0.6-0.3c-0.2-0.1-0.5-0.1-0.7-0.1c-0.3,0-0.5,0-0.7,0.1C52,0.9,51.8,1,51.7,1.2c-0.2,0.2-0.3,0.3-0.4,0.6
				c-0.1,0.2-0.1,0.5-0.1,0.8V9c0,0.3,0,0.6,0.1,0.8c0.1,0.2,0.2,0.4,0.4,0.6c0.2,0.2,0.4,0.3,0.6,0.3c0.2,0.1,0.5,0.1,0.7,0.1
				c0.3,0,0.5,0,0.7-0.1c0.2-0.1,0.4-0.2,0.6-0.3c0.2-0.2,0.3-0.3,0.4-0.6c0.1-0.2,0.1-0.5,0.1-0.8V2.6z"/>
			<path class="st4" d="M53,11.6c-0.3,0-0.7-0.1-1-0.2c-0.3-0.1-0.6-0.3-0.8-0.5c-0.2-0.2-0.4-0.5-0.6-0.8c-0.1-0.3-0.2-0.7-0.2-1.1
				V2.6c0-0.4,0.1-0.8,0.2-1.1c0.1-0.3,0.3-0.6,0.6-0.8c0.2-0.2,0.5-0.4,0.8-0.5c0.6-0.2,1.4-0.2,2,0c0.3,0.1,0.6,0.3,0.8,0.5
				c0.2,0.2,0.4,0.5,0.6,0.8c0.1,0.3,0.2,0.7,0.2,1.1V9c0,0.4-0.1,0.8-0.2,1.1c-0.1,0.3-0.3,0.6-0.6,0.8c-0.2,0.2-0.5,0.4-0.8,0.5
				C53.7,11.5,53.3,11.6,53,11.6z M53,0.4c-0.3,0-0.6,0-0.9,0.1c-0.3,0.1-0.5,0.2-0.7,0.4c-0.2,0.2-0.4,0.4-0.5,0.7
				c-0.1,0.3-0.2,0.6-0.2,1V9c0,0.4,0.1,0.7,0.2,1c0.1,0.3,0.3,0.5,0.5,0.7c0.2,0.2,0.4,0.3,0.7,0.4c0.5,0.2,1.2,0.2,1.7,0
				c0.3-0.1,0.5-0.2,0.7-0.4c0.2-0.2,0.4-0.4,0.5-0.7c0.1-0.3,0.2-0.6,0.2-1V2.6c0-0.4-0.1-0.7-0.2-1c-0.1-0.3-0.3-0.5-0.5-0.7
				c-0.2-0.2-0.4-0.3-0.7-0.4C53.6,0.4,53.3,0.4,53,0.4z M53,11c-0.3,0-0.5,0-0.8-0.1c-0.3-0.1-0.5-0.2-0.7-0.4
				c-0.2-0.2-0.3-0.4-0.4-0.6C51,9.6,50.9,9.3,50.9,9V2.6c0-0.3,0.1-0.6,0.2-0.9c0.1-0.3,0.3-0.5,0.4-0.6c0.2-0.2,0.4-0.3,0.7-0.4
				c0.5-0.2,1.1-0.2,1.6,0C54,0.7,54.2,0.9,54.4,1c0.2,0.2,0.3,0.4,0.4,0.6C55,1.9,55,2.2,55,2.6V9c0,0.4-0.1,0.7-0.2,0.9
				c-0.1,0.3-0.3,0.5-0.4,0.6c-0.2,0.2-0.4,0.3-0.6,0.4C53.5,11,53.3,11,53,11z M53,0.9c-0.2,0-0.5,0-0.7,0.1
				c-0.2,0.1-0.4,0.2-0.5,0.3c-0.1,0.1-0.3,0.3-0.4,0.5c-0.1,0.2-0.1,0.5-0.1,0.8V9c0,0.3,0,0.6,0.1,0.8c0.1,0.2,0.2,0.4,0.4,0.5
				c0.1,0.1,0.3,0.2,0.5,0.3c0.4,0.1,0.9,0.1,1.3,0c0.2-0.1,0.4-0.2,0.5-0.3c0.1-0.1,0.3-0.3,0.4-0.5c0.1-0.2,0.1-0.5,0.1-0.8V2.6
				c0-0.3,0-0.6-0.1-0.8c-0.1-0.2-0.2-0.4-0.4-0.5C54,1.2,53.8,1.1,53.6,1C53.4,0.9,53.2,0.9,53,0.9z"/>
		</g>
		<g>
			<path class="st3" d="M58.8,11.2V0.9h-2.1V0.3h4.8v0.5h-2.1v10.3H58.8z"/>
			<path class="st4" d="M59.5,11.4h-0.9V1.1h-2.1V0.2h5.2v0.9h-2.1V11.4z M59,11h0.2V0.7h2.1V0.5h-4.4v0.2H59V11z"/>
		</g>
		<g>
			<path class="st3" d="M67.3,11.2l-2.4-5.2h-1.7v5.2h-0.6V0.3h0.6v5.2h1.7l2.4-5.2h0.6l-2.5,5.4l2.5,5.4H67.3z"/>
			<path class="st4" d="M68.2,11.4h-1l-2.4-5.2h-1.4v5.2h-0.9V0.2h0.9v5.2h1.4l2.4-5.2h1l-2.6,5.6L68.2,11.4z M67.5,11h0.2l-2.5-5.3
				l2.4-5.3h-0.2L65,5.7h-2V0.5h-0.2V11h0.2V5.9h2L67.5,11z"/>
		</g>
		<g>
			<path class="st3" d="M69.1,11.2V0.3h2.1h0.1h0.2v0c0.3,0,0.6,0.1,0.9,0.2C72.6,0.7,72.8,0.8,73,1c0.2,0.2,0.4,0.4,0.5,0.7
				c0.1,0.3,0.2,0.6,0.2,1v2.1c0,0.5-0.1,0.9-0.2,1.2c-0.1,0.3-0.3,0.5-0.6,0.7c-0.2,0.2-0.5,0.3-0.7,0.4c-0.3,0.1-0.5,0.1-0.8,0.2
				h-0.1c0,0-0.1,0-0.1,0v0h-1.6v3.9H69.1z M73.2,2.7c0-0.3-0.1-0.6-0.2-0.8c-0.1-0.2-0.2-0.4-0.4-0.6C72.4,1.2,72.2,1.1,72,1
				c-0.2-0.1-0.5-0.1-0.8-0.1h-1.6v5.8h1.8c0.2,0,0.4-0.1,0.6-0.1c0.2-0.1,0.4-0.1,0.6-0.3C72.7,6.2,72.9,6,73,5.8
				c0.1-0.2,0.2-0.5,0.2-0.9V2.7z"/>
			<path class="st4" d="M69.8,11.4h-0.9V0.2h2.7v0c0.3,0,0.5,0.1,0.8,0.2c0.3,0.1,0.6,0.3,0.8,0.5c0.2,0.2,0.4,0.5,0.5,0.8
				c0.1,0.3,0.2,0.7,0.2,1.1v2.1c0,0.5-0.1,0.9-0.2,1.3c-0.2,0.3-0.4,0.6-0.6,0.8c-0.2,0.2-0.5,0.3-0.8,0.4
				c-0.3,0.1-0.5,0.1-0.8,0.2l-0.1,0c0,0-0.1,0-0.2,0l-1.4,0V11.4z M69.2,11h0.2V7.1h2c0.2,0,0.5-0.1,0.7-0.1
				c0.2-0.1,0.5-0.2,0.7-0.3C73,6.4,73.2,6.2,73.3,6c0.1-0.3,0.2-0.6,0.2-1.1V2.7c0-0.4-0.1-0.7-0.2-0.9c-0.1-0.3-0.3-0.5-0.4-0.7
				c-0.2-0.2-0.4-0.3-0.7-0.4c-0.3-0.1-0.5-0.2-0.8-0.2l-0.2,0h-1.9V11z M69.6,6.9h-0.2V0.7h1.8c0.3,0,0.6,0,0.8,0.1
				c0.3,0.1,0.5,0.2,0.7,0.4c0.2,0.2,0.4,0.4,0.5,0.6c0.1,0.3,0.2,0.6,0.2,0.9v2.1c0,0.4-0.1,0.8-0.2,1c-0.1,0.3-0.3,0.5-0.5,0.6
				c-0.2,0.1-0.4,0.2-0.7,0.3c-0.2,0.1-0.4,0.1-0.6,0.1L69.6,6.9z M69.8,6.5h1.6c0.1,0,0.3-0.1,0.5-0.1c0.2,0,0.4-0.1,0.5-0.2
				c0.2-0.1,0.3-0.3,0.4-0.5C72.9,5.5,73,5.2,73,4.9V2.7c0-0.3,0-0.6-0.1-0.8c-0.1-0.2-0.2-0.4-0.4-0.5c-0.2-0.1-0.3-0.2-0.6-0.3
				c-0.2-0.1-0.5-0.1-0.7-0.1h-1.4V6.5z"/>
		</g>
		<g>
			<path class="st3" d="M75.5,0.3v3.9h1.6c0.2,0,0.5,0,0.8,0.1c0.3,0.1,0.6,0.2,0.8,0.3c0.3,0.2,0.5,0.4,0.6,0.7
				c0.2,0.3,0.3,0.7,0.3,1.3v2.1c0,0.4-0.1,0.8-0.2,1.1c-0.1,0.3-0.3,0.5-0.5,0.7c-0.2,0.2-0.5,0.3-0.8,0.4c-0.3,0.1-0.6,0.1-1,0.1
				H75V0.3H75.5z M75.5,4.8v5.8h1.6c0.3,0,0.5,0,0.8-0.1c0.2-0.1,0.4-0.2,0.6-0.3c0.2-0.1,0.3-0.3,0.4-0.6c0.1-0.2,0.2-0.5,0.2-0.8
				V6.7c0-0.4-0.1-0.7-0.2-1c-0.1-0.2-0.3-0.4-0.5-0.6c-0.2-0.1-0.4-0.2-0.6-0.2c-0.2,0-0.4-0.1-0.6-0.1H75.5z M80.7,11.2V0.3h0.6
				v10.9H80.7z"/>
			<path class="st4" d="M81.5,11.4h-0.9V0.2h0.9V11.4z M80.9,11h0.2V0.5h-0.2V11z M77.1,11.4h-2.3V0.2h0.9v3.9h1.4
				c0.2,0,0.5,0,0.8,0.1c0.3,0.1,0.6,0.2,0.9,0.4c0.3,0.2,0.5,0.5,0.7,0.8c0.2,0.3,0.3,0.8,0.3,1.4v2.1c0,0.4-0.1,0.8-0.2,1.1
				c-0.1,0.3-0.3,0.6-0.6,0.8c-0.2,0.2-0.5,0.4-0.9,0.5C77.8,11.3,77.5,11.4,77.1,11.4z M75.2,11h1.9c0.3,0,0.6,0,0.9-0.1
				c0.3-0.1,0.5-0.2,0.7-0.4c0.2-0.2,0.4-0.4,0.5-0.7c0.1-0.3,0.2-0.6,0.2-1V6.7c0-0.5-0.1-0.9-0.2-1.2C79,5.2,78.8,5,78.6,4.8
				c-0.2-0.2-0.5-0.3-0.8-0.3c-0.3,0-0.5-0.1-0.8-0.1h-1.8V0.5h-0.2V11z M77.1,10.9h-1.8V4.6h1.8c0.2,0,0.4,0,0.6,0.1
				c0.3,0,0.5,0.1,0.7,0.3c0.2,0.1,0.4,0.4,0.6,0.6c0.2,0.3,0.2,0.6,0.2,1.1v2.1c0,0.4-0.1,0.7-0.2,0.9c-0.1,0.3-0.3,0.5-0.5,0.6
				c-0.2,0.2-0.4,0.3-0.7,0.4C77.7,10.8,77.4,10.9,77.1,10.9z M75.7,10.5h1.4c0.3,0,0.5,0,0.7-0.1c0.2-0.1,0.4-0.2,0.6-0.3
				c0.2-0.1,0.3-0.3,0.4-0.5c0.1-0.2,0.1-0.5,0.1-0.8V6.7c0-0.4-0.1-0.7-0.2-0.9c-0.1-0.2-0.3-0.4-0.5-0.5c-0.2-0.1-0.4-0.2-0.6-0.2
				C77.5,5,77.3,5,77.1,5h-1.4V10.5z"/>
		</g>
		<g>
			<path class="st3" d="M84.7,11.2V0.9h-2.1V0.3h4.8v0.5h-2.1v10.3H84.7z"/>
			<path class="st4" d="M85.5,11.4h-0.9V1.1h-2.1V0.2h5.2v0.9h-2.1V11.4z M84.9,11h0.2V0.7h2.1V0.5h-4.4v0.2h2.1V11z"/>
		</g>
		<g>
			<path class="st3" d="M93.3,11.2l-0.6-2.6h-3.4l-0.6,2.6h-0.6l2.6-10.9h0.5l2.6,10.9H93.3z M89.5,8.1h3.1l-1.5-6.5L89.5,8.1z"/>
			<path class="st4" d="M94.1,11.4h-1l-0.6-2.6h-3.1l-0.6,2.6h-0.9l2.7-11.2h0.8L94.1,11.4z M93.5,11h0.2L91.2,0.5h-0.3L88.4,11h0.2
				l0.6-2.6h3.6L93.5,11z M92.8,8.3h-3.6l1.8-7.5L92.8,8.3z M89.7,7.9h2.6L91,2.4L89.7,7.9z"/>
		</g>
		<g>
			<path class="st3" d="M94.8,11.2l1.9-4.1c-0.2-0.1-0.4-0.1-0.6-0.3c-0.2-0.1-0.3-0.3-0.5-0.4c-0.1-0.2-0.3-0.4-0.3-0.7
				c-0.1-0.3-0.1-0.6-0.1-0.9V2.7c0-0.4,0.1-0.8,0.2-1.1c0.1-0.3,0.3-0.5,0.5-0.7c0.2-0.2,0.5-0.3,0.8-0.4c0.3-0.1,0.6-0.1,1-0.1
				h2.1v10.9h-0.5V7.3h-1.6c-0.1,0-0.1,0-0.2,0c-0.1,0-0.2,0-0.2,0l-1.8,4H94.8z M95.7,2.7v2.1c0,0.4,0.1,0.8,0.2,1
				c0.1,0.2,0.3,0.4,0.5,0.6c0.2,0.1,0.4,0.2,0.6,0.2c0.2,0,0.4,0.1,0.6,0.1h1.6V0.9h-1.6c-0.3,0-0.5,0-0.8,0.1
				c-0.2,0.1-0.5,0.2-0.6,0.3c-0.2,0.1-0.3,0.3-0.4,0.6C95.8,2.1,95.7,2.4,95.7,2.7z"/>
			<path class="st4" d="M100,11.4h-0.9V7.5h-1.6c0,0-0.1,0-0.1,0l-1.8,4h-1l1.9-4.2C96.3,7.2,96.2,7.1,96,7
				c-0.2-0.1-0.4-0.3-0.5-0.5c-0.2-0.2-0.3-0.4-0.4-0.7C95,5.6,95,5.2,95,4.9V2.7c0-0.4,0.1-0.8,0.2-1.1c0.1-0.3,0.3-0.6,0.6-0.8
				c0.2-0.2,0.5-0.4,0.9-0.5c0.3-0.1,0.7-0.2,1-0.2h2.3V11.4z M99.5,11h0.2V0.5h-1.9c-0.3,0-0.6,0-0.9,0.1c-0.3,0.1-0.5,0.2-0.7,0.4
				c-0.2,0.2-0.4,0.4-0.5,0.7c-0.1,0.3-0.2,0.6-0.2,1v2.1c0,0.3,0,0.6,0.1,0.9c0.1,0.2,0.2,0.4,0.3,0.6c0.1,0.2,0.3,0.3,0.4,0.4
				c0.2,0.1,0.3,0.2,0.5,0.2L97,7l-1.9,4h0.2l1.8-4l0.1,0c0.1,0,0.1,0,0.2,0h2V11z M99.5,6.9h-1.8c-0.2,0-0.4,0-0.6-0.1
				c-0.3,0-0.5-0.1-0.7-0.3c-0.2-0.1-0.4-0.4-0.6-0.6c-0.2-0.3-0.2-0.6-0.2-1.1V2.7c0-0.3,0.1-0.7,0.2-0.9c0.1-0.3,0.3-0.5,0.5-0.6
				c0.2-0.2,0.4-0.3,0.7-0.4c0.3-0.1,0.5-0.1,0.8-0.1h1.8V6.9z M97.7,1.1c-0.3,0-0.5,0-0.7,0.1c-0.2,0.1-0.4,0.2-0.6,0.3
				C96.3,1.6,96.1,1.8,96,2c-0.1,0.2-0.1,0.5-0.1,0.8v2.1c0,0.4,0.1,0.7,0.2,0.9c0.1,0.2,0.3,0.4,0.5,0.5c0.2,0.1,0.4,0.2,0.6,0.2
				c0.2,0,0.4,0.1,0.6,0.1h1.4V1.1H97.7z"/>
		</g>
	</g>
</g>
</svg>
