<?xml version="1.0" encoding="utf-8"?>
<!-- Generator: Adobe Illustrator 21.0.0, SVG Export Plug-In . SVG Version: 6.00 Build 0)  -->
<!DOCTYPE svg PUBLIC "-//W3C//DTD SVG 1.1//EN" "http://www.w3.org/Graphics/SVG/1.1/DTD/svg11.dtd">
<svg version="1.1" id="view" xmlns="http://www.w3.org/2000/svg" xmlns:xlink="http://www.w3.org/1999/xlink" x="0px" y="0px"
	 viewBox="0 0 30 30" style="enable-background:new 0 0 30 30;" xml:space="preserve">
<g>
	<path d="M15,8.3C7.1,8.3,3,14.1,3,15c0,0.9,4.1,6.7,12,6.7c7.9,0,12-5.8,12-6.7C27,14.1,22.9,8.3,15,8.3z M15,20.2
		c-2.9,0-5.3-2.3-5.3-5.2s2.4-5.2,5.3-5.2s5.3,2.3,5.3,5.2S17.9,20.2,15,20.2z M15,15c-0.5-0.5,0.8-2.6,0-2.6
		c-1.5,0-2.7,1.2-2.7,2.6c0,1.4,1.2,2.6,2.7,2.6c1.5,0,2.7-1.2,2.7-2.6C17.7,14.3,15.4,15.5,15,15z"/>
</g>
</svg>
